<?xml version="1.0" encoding="utf-8"?>
<!-- Generator: Adobe Illustrator 19.0.0, SVG Export Plug-In . SVG Version: 6.00 Build 0)  -->
<svg version="1.1" id="Layer_1" xmlns="http://www.w3.org/2000/svg" xmlns:xlink="http://www.w3.org/1999/xlink" x="0px" y="0px"
	 viewBox="0 0 128 128" style="enable-background:new 0 0 128 128;" xml:space="preserve">
<style type="text/css">
	.st0{fill:#AFF4F9;}
	.st1{fill:#6BAAAA;}
	.st2{fill:#9AD8D6;}
</style>
<circle id="XMLID_1_" class="st0" cx="64" cy="65" r="64"/>
<path id="XMLID_2_" class="st0" d="M80.9,102.2"/>
<path id="XMLID_4_" class="st1" d="M98.3,110.8"/>
<path id="XMLID_3_" class="st2" d="M79.9,32.5c5.2-5.8,8.7-2,14.5,3.2c5.8,5.2,8.7,7.9,3.5,13.7L80.2,69.2
	c-5.2,5.8-15.1-1.9-20.4-6.7l-6.2,6.9l9.1,7.5c5.8,5.3,17.1,5.9,22.4,0.1l21.5-23.8c5.3-5.8,4.8-14.8-1-20.1l-9.7-8.7
	c-5.8-5.3-14.9-4.7-20.2,1.1L59.1,43.9l9.1,2L79.9,32.5z"/>
<path id="XMLID_7_" class="st1" d="M57.1,96.5c-5.2,5.8-8.7,2-14.5-3.2c-5.8-5.2-8.7-7.9-3.5-13.7l17.6-19.8
	c5.2-5.8,15.1,1.9,20.4,6.7l6.2-6.9L74.3,52c-5.8-5.3-17.1-5.9-22.4-0.1L30.4,75.7c-5.3,5.8-4.8,14.8,1,20.1l9.7,8.7
	c5.8,5.3,14.9,4.7,20.2-1.1l16.5-18.3l-9.1-2L57.1,96.5z"/>
</svg>
