<?xml version="1.0" encoding="utf-8"?>
<!-- Generator: Adobe Illustrator 19.0.0, SVG Export Plug-In . SVG Version: 6.00 Build 0)  -->
<svg version="1.1" id="Layer_1" xmlns="http://www.w3.org/2000/svg" xmlns:xlink="http://www.w3.org/1999/xlink" x="0px" y="0px"
	 viewBox="0 0 128 128" style="enable-background:new 0 0 128 128;" xml:space="preserve">
<style type="text/css">
	.st0{fill:#AFF4F9;}
	.st1{fill:#9AD8D6;}
	.st2{fill:#6BAAAA;}
</style>
<circle id="XMLID_1_" class="st0" cx="64" cy="64" r="64"/>
<path id="XMLID_2_" class="st0" d="M80.9,102.2"/>
<path id="XMLID_11_" class="st1" d="M63.7,25.4c-13.8,0-25,5.2-25,27s25,57.1,25,57.1s25-35.3,25-57.1
	C88.7,30.7,77.5,25.4,63.7,25.4z M63.4,64.3c-6.4,0-11.6-5.3-11.6-11.8S57,40.6,63.4,40.6S75,45.9,75,52.5S69.8,64.3,63.4,64.3z"/>
<path id="XMLID_15_" class="st2" d="M57.9,62.9c-3.6-2-6.1-5.9-6.1-10.4c0-2.1,0.5-4,1.4-5.7l-8.7-14.6c-3.7,4.1-6.2,10.5-6.2,20.2
	c0,20.8,23.1,54,25.2,57.1L57.9,62.9z"/>
</svg>
