<?xml version="1.0" encoding="utf-8"?>
<!-- Generator: Adobe Illustrator 19.0.0, SVG Export Plug-In . SVG Version: 6.00 Build 0)  -->
<svg version="1.1" id="Layer_1" xmlns="http://www.w3.org/2000/svg" xmlns:xlink="http://www.w3.org/1999/xlink" x="0px" y="0px"
	 viewBox="0 0 128 128" style="enable-background:new 0 0 128 128;" xml:space="preserve">
<style type="text/css">
	.st0{fill:#AFF4F9;}
	.st1{fill:#9AD8D6;}
	.st2{fill:#6BAAAA;}
</style>
<circle id="XMLID_1_" class="st0" cx="64" cy="64" r="64"/>
<path id="XMLID_2_" class="st0" d="M80.9,102.2"/>
<path id="XMLID_5_" class="st1" d="M87.8,80.3c-2.2,0.8-4.2,1.6-6.1,2.5c-0.2,0.2-0.3,0.3-0.3,0.3l0,0c-0.8,0.7-1.8,1.2-3,1.3
	c-0.2,0.1-0.4,0.2-0.5,0.3c-0.1-0.1-0.2-0.1-0.3-0.2c-5.2,0.2-13-4.4-19.2-12.1c-6-7.6-10.8-14.3-11-18.9l0,0c0,0,0-0.1,0-0.3
	c0-0.3,0-0.7,0.1-1c0-0.2,0.1-0.3,0.2-0.5c1-2.3,2.1-4.9,2.8-7.5L34.6,24.7c-1.3,0.1-2.7,0.4-4,0.8c-6.3,2.2-8.5,13.8-9.2,19
	c-0.1,0.6-0.2,1.3-0.2,1.9c0,0.4,0,0.6,0,0.6l0.1,0c0.3,9.1,11.1,22.2,24.7,37c17.9,19.5,42,28.9,51.8,21l0,0c0,0,7-5.8,8.3-12.3
	L87.8,80.3z"/>
<path id="XMLID_4_" class="st2" d="M98.3,110.8"/>
<path id="XMLID_12_" class="st2" d="M99.7,102.1L99.7,102.1c-9.9,7.8-33.9-1.6-51.8-21.1c-13.6-14.8-24.4-28-24.7-37l-0.1,0
	c0,0,0-0.2,0-0.6c0-0.7,0.1-1.3,0.2-1.9c0.4-3.3,1.5-9.1,3.7-13.5c-3.7,4.3-5.2,12.4-5.7,16.5c-0.1,0.6-0.2,1.3-0.2,1.9
	c0,0.4,0,0.6,0,0.6l0.1,0c0.3,9.1,11.1,22.2,24.7,37c17.9,19.5,42,28.9,51.8,21l0,0c0,0,4-3.3,6.5-7.8
	C102,100.2,99.7,102.1,99.7,102.1z"/>
</svg>
